<svg height="600" viewBox="0 0 600 600" width="600" xmlns="http://www.w3.org/2000/svg">
<rect fill="#F8F9F9" height="100%" width="100%"/>
<rect fill="transparent" height="506" rx="10" ry="10" stroke="#333" stroke-width="3" width="506" x="47" y="47"/>
<rect fill="#E8DEDD" height="203" rx="10" ry="10" stroke="#333" stroke-width="2.03" width="203" x="72" y="72"/>
<rect fill="#E8DEE3" height="81" rx="4.05" ry="4.05" stroke="#333" stroke-width="0.81" width="81" x="82" y="82"/>
<rect fill="#E8DEE3" height="81" rx="4.05" ry="4.05" stroke="#333" stroke-width="0.81" width="81" x="183" y="82"/>
<rect fill="#E8DEE3" height="81" rx="4.05" ry="4.05" stroke="#333" stroke-width="0.81" width="81" x="82" y="183"/>
<rect fill="#E8DEE3" height="81" rx="4.05" ry="4.05" stroke="#333" stroke-width="0.81" width="81" x="183" y="183"/>
<rect fill="#DEE8ED" height="203" rx="10" ry="10" stroke="#333" stroke-width="2.03" width="203" x="325" y="72"/>
<rect fill="#DEE8E8" height="55" rx="2.75" ry="2.75" stroke="#333" stroke-width="0.55" width="163" x="345" y="78"/>
<rect fill="#DEE8E8" height="55" rx="2.75" ry="2.75" stroke="#333" stroke-width="0.55" width="163" x="345" y="145"/>
<rect fill="#DEE8E8" height="55" rx="2.75" ry="2.75" stroke="#333" stroke-width="0.55" width="163" x="345" y="212"/>
<rect fill="#DEE8E3" height="203" rx="10" ry="10" stroke="#333" stroke-width="2.03" width="203" x="72" y="325"/>
<rect fill="#E8E8DE" height="203" rx="10" ry="10" stroke="#333" stroke-width="2.03" width="203" x="325" y="325"/>
<text dominant-baseline="auto" fill="#2C3E50" font-family="Arial, sans-serif" font-size="13" text-anchor="middle" x="122" y="129">
Child A1
</text>
<text dominant-baseline="auto" fill="#2C3E50" font-family="Arial, sans-serif" font-size="13" text-anchor="middle" x="223" y="129">
Child A2
</text>
<text dominant-baseline="auto" fill="#2C3E50" font-family="Arial, sans-serif" font-size="13" text-anchor="middle" x="122" y="230">
Child A3
</text>
<text dominant-baseline="auto" fill="#2C3E50" font-family="Arial, sans-serif" font-size="13" text-anchor="middle" x="223" y="230">
Child A4
</text>
<text dominant-baseline="auto" fill="#2C3E50" font-family="Arial, sans-serif" font-size="14" text-anchor="middle" x="426" y="112">
Child B1
</text>
<text dominant-baseline="auto" fill="#2C3E50" font-family="Arial, sans-serif" font-size="14" text-anchor="middle" x="426" y="179">
Child B2
</text>
<text dominant-baseline="auto" fill="#2C3E50" font-family="Arial, sans-serif" font-size="14" text-anchor="middle" x="426" y="246">
Child B3
</text>
<text dominant-baseline="auto" fill="#2C3E50" font-family="Arial, sans-serif" font-size="14" text-anchor="middle" x="173" y="433">
Simple C
</text>
<text dominant-baseline="auto" fill="#2C3E50" font-family="Arial, sans-serif" font-size="14" text-anchor="middle" x="426" y="433">
Simple D
</text>
<text fill="#2C3E50" font-family="Arial, sans-serif" font-size="27" font-weight="bold" text-anchor="middle" x="300" y="37">
Nested Boxes
</text>
</svg>